<svg xmlns="http://www.w3.org/2000/svg" version="1.1"  x="0" y="0" viewBox="0 0 100 100" xml:space="preserve">
<path d="M82.675 7.366a2.217 2.217 0 0 0-2.549-1.837c-5.984.97-11.505 4.572-14.898 9.593a10.31 10.31 0 0 0-8.071 1.636 37.546 37.546 0 0 1 6.72 2.094 2.21 2.21 0 0 0 2.107 1.535c.274 0 .538-.068.792-.166a37.56 37.56 0 0 1 6.586 4.353 10.302 10.302 0 0 0-4.022-7.547c2.737-3.716 6.942-6.372 11.497-7.111a2.224 2.224 0 0 0 1.838-2.55z" fill="#79ab36"/><path d="M73.362 24.573c-.413-.342-.845-.667-1.275-.994a37.39 37.39 0 0 0-6.352-3.902 37.46 37.46 0 0 0-8.579-2.921c-16.449-3.46-33.75 4.55-41.379 20.369C6.8 55.741 23.441 90.068 30.212 93.333c.478.231 1.03.416 1.619.578 11.466 3.153 42.814-6.57 51.353-24.275 7.63-15.819 3.127-34.345-9.822-45.063z" fill="#8cc63f"/><path d="M48.306 23.187c-2.663 1.808-5.199 3.645-7.64 5.599a84.005 84.005 0 0 0-6.928 6.23c-2.173 2.203-4.221 4.522-6.078 7.008-1.86 2.488-3.527 5.124-5.113 7.931.553-3.176 1.778-6.238 3.398-9.057a37.381 37.381 0 0 1 5.93-7.736 41.815 41.815 0 0 1 7.611-6.045c2.748-1.7 5.701-3.111 8.82-3.93z" fill="#6d9636"/><metadata xmlns:d="https://loading.io/stock/">
<d:name>cocoa</d:name>
<d:tags>cocoa,subtropical,fruit</d:tags>
<d:license>by</d:license>
<d:slug>plflyg</d:slug>
</metadata></svg>